# xmcd
#
# Track frame offsets:
#  150
#  25763
#  48001
#  54376
#  66226
#  99676
#  111226
#  120676
#  134851
#  141414
#  159152
#
# Disc length: 2552 seconds
#
# Revision: 1
# Processed by: cddbd v1.5.1PL0 Copyright (c) Steve Scherf et al.
# Submitted via: Collectorz.com Music Collector 6.9
#
DISCID=9c09f60b
DTITLE=Todd Snider - Elliston Place, Nashville - 10-11-1997 - Disc 2
DYEAR=1997
DGENRE=
TTITLE0=Late Last Night
TTITLE1=I Believe You
TTITLE2=Alright Guy
TTITLE3=That's Alright Mama
TTITLE4=Alright Guy
TTITLE5=Walk on the Wild Side
TTITLE6=(Banter)
TTITLE7=Great Balls of Fire
TTITLE8=(Crowd)
TTITLE9=Amarillo By Morning
TTITLE10=Street Fighting Man
EXTD=
EXTT0=
EXTT1=
EXTT2=
EXTT3=
EXTT4=
EXTT5=
EXTT6=
EXTT7=
EXTT8=
EXTT9=
EXTT10=
PLAYORDER=
